<mxfile host="Electron" modified="2024-01-15T07:59:01.349Z" agent="Mozilla/5.0 (Windows NT 10.0; Win64; x64) AppleWebKit/537.36 (KHTML, like Gecko) draw.io/21.2.8 Chrome/112.0.5615.165 Electron/24.2.0 Safari/537.36" etag="dVADv7ik_dYNNlyhPL1M" version="21.2.8" type="device">
  <diagram name="Page-1" id="Bv8gcFhZTiUK7OjKbL4r">
    <mxGraphModel dx="2119" dy="879" grid="1" gridSize="10" guides="1" tooltips="1" connect="1" arrows="1" fold="1" page="1" pageScale="1" pageWidth="827" pageHeight="1169" math="0" shadow="0">
      <root>
        <mxCell id="0" />
        <mxCell id="1" parent="0" />
        <mxCell id="RdcuWtGcTMEvWrBZq4b1-1" value="&lt;font style=&quot;font-size: 16px;&quot; face=&quot;Verdana&quot;&gt;&lt;b&gt;Cli&lt;/b&gt;&lt;/font&gt;" style="rounded=1;whiteSpace=wrap;html=1;fillColor=#dae8fc;gradientColor=#7ea6e0;strokeColor=#0f1114;" vertex="1" parent="1">
          <mxGeometry x="-16" y="390" width="100" height="50" as="geometry" />
        </mxCell>
        <mxCell id="RdcuWtGcTMEvWrBZq4b1-2" value="&lt;font style=&quot;font-size: 16px;&quot; face=&quot;Verdana&quot;&gt;&lt;b&gt;Driver&lt;br&gt;&lt;/b&gt;&lt;/font&gt;" style="rounded=1;whiteSpace=wrap;html=1;fillColor=#f8cecc;gradientColor=#ea6b66;strokeColor=#181616;" vertex="1" parent="1">
          <mxGeometry x="220" y="390" width="100" height="50" as="geometry" />
        </mxCell>
        <mxCell id="RdcuWtGcTMEvWrBZq4b1-4" value="&lt;font style=&quot;font-size: 16px;&quot; face=&quot;Verdana&quot;&gt;&lt;b&gt;Complier&lt;br&gt;&lt;/b&gt;&lt;/font&gt;" style="rounded=1;whiteSpace=wrap;html=1;fillColor=#fff2cc;gradientColor=#ffd966;strokeColor=#090606;" vertex="1" parent="1">
          <mxGeometry x="220" y="544" width="100" height="50" as="geometry" />
        </mxCell>
        <mxCell id="RdcuWtGcTMEvWrBZq4b1-5" value="" style="endArrow=classic;html=1;rounded=0;exitX=0.25;exitY=1;exitDx=0;exitDy=0;entryX=0.25;entryY=0;entryDx=0;entryDy=0;" edge="1" parent="1" source="RdcuWtGcTMEvWrBZq4b1-2" target="RdcuWtGcTMEvWrBZq4b1-4">
          <mxGeometry width="50" height="50" relative="1" as="geometry">
            <mxPoint x="390" y="470" as="sourcePoint" />
            <mxPoint x="440" y="420" as="targetPoint" />
          </mxGeometry>
        </mxCell>
        <mxCell id="RdcuWtGcTMEvWrBZq4b1-6" value="" style="endArrow=classic;html=1;rounded=0;exitX=0.75;exitY=0;exitDx=0;exitDy=0;entryX=0.75;entryY=1;entryDx=0;entryDy=0;" edge="1" parent="1" source="RdcuWtGcTMEvWrBZq4b1-4" target="RdcuWtGcTMEvWrBZq4b1-2">
          <mxGeometry width="50" height="50" relative="1" as="geometry">
            <mxPoint x="390" y="470" as="sourcePoint" />
            <mxPoint x="440" y="420" as="targetPoint" />
          </mxGeometry>
        </mxCell>
        <mxCell id="RdcuWtGcTMEvWrBZq4b1-7" value="&lt;font style=&quot;font-size: 14px;&quot; face=&quot;Verdana&quot;&gt;2. getPlan&lt;/font&gt;" style="text;html=1;align=center;verticalAlign=middle;resizable=0;points=[];autosize=1;strokeColor=none;fillColor=none;" vertex="1" parent="1">
          <mxGeometry x="151" y="481" width="90" height="30" as="geometry" />
        </mxCell>
        <mxCell id="RdcuWtGcTMEvWrBZq4b1-24" style="edgeStyle=orthogonalEdgeStyle;rounded=0;orthogonalLoop=1;jettySize=auto;html=1;exitX=0.5;exitY=0;exitDx=0;exitDy=0;entryX=0.5;entryY=1;entryDx=0;entryDy=0;" edge="1" parent="1" source="RdcuWtGcTMEvWrBZq4b1-8" target="RdcuWtGcTMEvWrBZq4b1-18">
          <mxGeometry relative="1" as="geometry">
            <mxPoint x="500" y="466" as="targetPoint" />
          </mxGeometry>
        </mxCell>
        <mxCell id="RdcuWtGcTMEvWrBZq4b1-8" value="&lt;font style=&quot;font-size: 16px;&quot; face=&quot;Verdana&quot;&gt;&lt;b&gt;MetaStore&lt;br&gt;&lt;/b&gt;&lt;/font&gt;" style="rounded=1;whiteSpace=wrap;html=1;fillColor=#e6d0de;gradientColor=#d5739d;strokeColor=#121112;" vertex="1" parent="1">
          <mxGeometry x="505" y="544" width="120" height="50" as="geometry" />
        </mxCell>
        <mxCell id="RdcuWtGcTMEvWrBZq4b1-9" value="" style="endArrow=classic;html=1;rounded=0;exitX=1;exitY=0.25;exitDx=0;exitDy=0;entryX=0;entryY=0.25;entryDx=0;entryDy=0;" edge="1" parent="1" source="RdcuWtGcTMEvWrBZq4b1-4" target="RdcuWtGcTMEvWrBZq4b1-8">
          <mxGeometry width="50" height="50" relative="1" as="geometry">
            <mxPoint x="390" y="494" as="sourcePoint" />
            <mxPoint x="440" y="444" as="targetPoint" />
          </mxGeometry>
        </mxCell>
        <mxCell id="RdcuWtGcTMEvWrBZq4b1-10" value="&lt;font face=&quot;Verdana&quot; style=&quot;font-size: 14px;&quot;&gt;3. getMetaData&lt;/font&gt;" style="text;html=1;align=center;verticalAlign=middle;resizable=0;points=[];autosize=1;strokeColor=none;fillColor=none;" vertex="1" parent="1">
          <mxGeometry x="321" y="527" width="130" height="30" as="geometry" />
        </mxCell>
        <mxCell id="RdcuWtGcTMEvWrBZq4b1-11" value="" style="endArrow=classic;html=1;rounded=0;exitX=0;exitY=0.75;exitDx=0;exitDy=0;entryX=1;entryY=0.75;entryDx=0;entryDy=0;" edge="1" parent="1" source="RdcuWtGcTMEvWrBZq4b1-8" target="RdcuWtGcTMEvWrBZq4b1-4">
          <mxGeometry width="50" height="50" relative="1" as="geometry">
            <mxPoint x="390" y="494" as="sourcePoint" />
            <mxPoint x="440" y="444" as="targetPoint" />
          </mxGeometry>
        </mxCell>
        <mxCell id="RdcuWtGcTMEvWrBZq4b1-12" value="&lt;font face=&quot;Verdana&quot; style=&quot;font-size: 14px;&quot;&gt;4. sendMetaData&lt;/font&gt;" style="text;html=1;align=center;verticalAlign=middle;resizable=0;points=[];autosize=1;strokeColor=none;fillColor=none;" vertex="1" parent="1">
          <mxGeometry x="322" y="580" width="140" height="30" as="geometry" />
        </mxCell>
        <mxCell id="RdcuWtGcTMEvWrBZq4b1-13" value="&lt;font style=&quot;font-size: 14px;&quot; face=&quot;Verdana&quot;&gt;5. sendPlan&lt;/font&gt;" style="text;html=1;align=center;verticalAlign=middle;resizable=0;points=[];autosize=1;strokeColor=none;fillColor=none;" vertex="1" parent="1">
          <mxGeometry x="289" y="482" width="110" height="30" as="geometry" />
        </mxCell>
        <mxCell id="RdcuWtGcTMEvWrBZq4b1-14" value="&lt;font face=&quot;Verdana&quot; style=&quot;font-size: 14px;&quot;&gt;1. executeQuery&lt;/font&gt;" style="text;html=1;align=center;verticalAlign=middle;resizable=0;points=[];autosize=1;strokeColor=none;fillColor=none;" vertex="1" parent="1">
          <mxGeometry x="81" y="374" width="140" height="30" as="geometry" />
        </mxCell>
        <mxCell id="RdcuWtGcTMEvWrBZq4b1-15" value="" style="endArrow=classic;html=1;rounded=0;exitX=1;exitY=0.25;exitDx=0;exitDy=0;entryX=0;entryY=0.25;entryDx=0;entryDy=0;" edge="1" parent="1">
          <mxGeometry width="50" height="50" relative="1" as="geometry">
            <mxPoint x="84" y="405.5" as="sourcePoint" />
            <mxPoint x="220" y="405.5" as="targetPoint" />
          </mxGeometry>
        </mxCell>
        <mxCell id="RdcuWtGcTMEvWrBZq4b1-16" value="&lt;font face=&quot;Verdana&quot; style=&quot;font-size: 14px;&quot;&gt;8. fetchResults&lt;/font&gt;" style="text;html=1;align=center;verticalAlign=middle;resizable=0;points=[];autosize=1;strokeColor=none;fillColor=none;" vertex="1" parent="1">
          <mxGeometry x="91" y="424" width="130" height="30" as="geometry" />
        </mxCell>
        <mxCell id="RdcuWtGcTMEvWrBZq4b1-17" value="" style="endArrow=classic;html=1;rounded=0;exitX=0;exitY=0.75;exitDx=0;exitDy=0;entryX=1;entryY=0.75;entryDx=0;entryDy=0;" edge="1" parent="1">
          <mxGeometry width="50" height="50" relative="1" as="geometry">
            <mxPoint x="220" y="423.5" as="sourcePoint" />
            <mxPoint x="84" y="423.5" as="targetPoint" />
          </mxGeometry>
        </mxCell>
        <mxCell id="RdcuWtGcTMEvWrBZq4b1-29" style="edgeStyle=orthogonalEdgeStyle;rounded=0;orthogonalLoop=1;jettySize=auto;html=1;exitX=1;exitY=0.5;exitDx=0;exitDy=0;" edge="1" parent="1" source="RdcuWtGcTMEvWrBZq4b1-18" target="RdcuWtGcTMEvWrBZq4b1-28">
          <mxGeometry relative="1" as="geometry" />
        </mxCell>
        <mxCell id="RdcuWtGcTMEvWrBZq4b1-18" value="&lt;font style=&quot;font-size: 16px;&quot; face=&quot;Verdana&quot;&gt;&lt;b&gt;Execution&lt;br&gt;Engine&lt;br&gt;&lt;/b&gt;&lt;/font&gt;" style="rounded=1;whiteSpace=wrap;html=1;fillColor=#f5f5f5;gradientColor=#b3b3b3;strokeColor=#000000;" vertex="1" parent="1">
          <mxGeometry x="500" y="386" width="130" height="58" as="geometry" />
        </mxCell>
        <mxCell id="RdcuWtGcTMEvWrBZq4b1-20" value="&lt;font face=&quot;Verdana&quot; style=&quot;font-size: 14px;&quot;&gt;6. executePlan&lt;/font&gt;" style="text;html=1;align=center;verticalAlign=middle;resizable=0;points=[];autosize=1;strokeColor=none;fillColor=none;" vertex="1" parent="1">
          <mxGeometry x="341" y="425" width="130" height="30" as="geometry" />
        </mxCell>
        <mxCell id="RdcuWtGcTMEvWrBZq4b1-23" value="&lt;font style=&quot;font-size: 14px;&quot; face=&quot;Verdana&quot;&gt;7. sendResults&lt;/font&gt;" style="text;html=1;align=center;verticalAlign=middle;resizable=0;points=[];autosize=1;strokeColor=none;fillColor=none;" vertex="1" parent="1">
          <mxGeometry x="342" y="376" width="130" height="30" as="geometry" />
        </mxCell>
        <mxCell id="RdcuWtGcTMEvWrBZq4b1-25" value="&lt;font face=&quot;Verdana&quot; style=&quot;font-size: 14px;&quot;&gt;6.1 metaDataOps&lt;/font&gt;" style="text;html=1;align=center;verticalAlign=middle;resizable=0;points=[];autosize=1;strokeColor=none;fillColor=none;" vertex="1" parent="1">
          <mxGeometry x="570" y="482" width="150" height="30" as="geometry" />
        </mxCell>
        <mxCell id="RdcuWtGcTMEvWrBZq4b1-26" value="" style="endArrow=none;html=1;rounded=0;startArrow=classic;startFill=1;endFill=0;" edge="1" parent="1">
          <mxGeometry width="50" height="50" relative="1" as="geometry">
            <mxPoint x="500" y="427" as="sourcePoint" />
            <mxPoint x="320" y="427" as="targetPoint" />
          </mxGeometry>
        </mxCell>
        <mxCell id="RdcuWtGcTMEvWrBZq4b1-27" value="" style="endArrow=classic;html=1;rounded=0;" edge="1" parent="1">
          <mxGeometry width="50" height="50" relative="1" as="geometry">
            <mxPoint x="500" y="406" as="sourcePoint" />
            <mxPoint x="320" y="406" as="targetPoint" />
          </mxGeometry>
        </mxCell>
        <mxCell id="RdcuWtGcTMEvWrBZq4b1-28" value="&lt;font style=&quot;font-size: 16px;&quot; face=&quot;Verdana&quot;&gt;&lt;b&gt;MR &lt;br&gt;Task&lt;br&gt;&lt;/b&gt;&lt;/font&gt;" style="rounded=1;whiteSpace=wrap;html=1;fillColor=#dae8fc;gradientColor=#7ea6e0;strokeColor=#000000;" vertex="1" parent="1">
          <mxGeometry x="720" y="340" width="91" height="150" as="geometry" />
        </mxCell>
      </root>
    </mxGraphModel>
  </diagram>
</mxfile>
